<?xml version="1.0" encoding="UTF-8" standalone="no"?>
<!-- Created with Inkscape (http://www.inkscape.org/) -->

<svg
   width="1024"
   height="1024"
   viewBox="0 0 270.93333 270.93333"
   version="1.1"
   id="svg1"
   xml:space="preserve"
   inkscape:version="1.3 (0e150ed6c4, 2023-07-21)"
   sodipodi:docname="Logo.svg"
   xmlns:inkscape="http://www.inkscape.org/namespaces/inkscape"
   xmlns:sodipodi="http://sodipodi.sourceforge.net/DTD/sodipodi-0.dtd"
   xmlns="http://www.w3.org/2000/svg"
   xmlns:svg="http://www.w3.org/2000/svg"><sodipodi:namedview
     id="namedview1"
     pagecolor="#ffffff"
     bordercolor="#000000"
     borderopacity="0.25"
     inkscape:showpageshadow="2"
     inkscape:pageopacity="0.0"
     inkscape:pagecheckerboard="0"
     inkscape:deskcolor="#d1d1d1"
     inkscape:document-units="mm"
     inkscape:zoom="0.38083965"
     inkscape:cx="-231.06838"
     inkscape:cy="699.76958"
     inkscape:window-width="1920"
     inkscape:window-height="1111"
     inkscape:window-x="-9"
     inkscape:window-y="-9"
     inkscape:window-maximized="1"
     inkscape:current-layer="layer1" /><defs
     id="defs1" /><g
     inkscape:label="Ebene 1"
     inkscape:groupmode="layer"
     id="layer1"><path
       id="path1"
       style="fill:#000000;fill-opacity:1;stroke:#8a8a8a;stroke-width:0.66499997;stroke-opacity:1;stroke-dasharray:none"
       d="M 135.59896 0 A 135.46666 135.46666 0 0 0 0.13229167 135.46667 A 135.46666 135.46666 0 0 0 135.59896 270.93333 A 135.46666 135.46666 0 0 0 271.06562 135.46667 A 135.46666 135.46666 0 0 0 135.59896 0 z M 134.23315 21.764046 L 169.1597 21.764046 C 169.1597 21.764046 169.58884 21.806125 169.74571 21.944914 C 169.8577 22.043929 169.94312 22.361426 169.94312 22.361426 L 169.94312 48.220829 L 202.62174 48.220829 L 202.62174 47.977433 L 210.43315 47.977433 L 210.43315 222.29341 L 210.21714 222.29341 L 60.500183 222.29341 L 60.500183 222.0495 L 60.500183 47.977433 L 66.46106 47.977433 L 66.46106 48.220829 L 133.39754 48.220829 L 133.39754 22.557796 C 133.39754 22.557796 133.40022 22.093288 133.53862 21.944914 C 133.70739 21.764783 134.23315 21.764046 134.23315 21.764046 z M 138.36416 25.777755 C 138.36416 25.777755 137.90428 25.777067 137.74611 25.9271 C 137.59813 26.067399 137.54716 26.524479 137.54716 26.524479 L 137.54716 48.220829 L 166.35264 48.220829 L 166.35264 26.194784 C 166.35264 26.194784 166.3297 25.99511 166.2684 25.9271 C 166.17756 25.82628 165.90098 25.777755 165.90098 25.777755 L 138.36416 25.777755 z M 66.46106 57.184623 L 66.46106 171.13994 L 85.12452 156.19718 L 85.12452 110.64648 L 85.12452 101.36229 L 85.12452 88.877262 L 85.12452 79.273714 L 85.12452 65.188269 L 91.935474 70.630831 L 91.935474 79.273714 L 119.19427 79.273714 L 119.19427 64.293233 L 133.39754 64.293233 L 133.39754 57.184623 L 66.46106 57.184623 z M 137.54716 57.184623 L 137.54716 64.293233 L 151.74991 64.293233 L 151.74991 79.273714 L 177.3623 79.273714 L 177.3623 70.630831 L 185.3091 64.944356 L 185.3091 156.13569 L 202.62174 169.99583 L 202.62174 57.184623 L 137.54716 57.184623 z M 122.44162 67.77054 L 122.44162 115.47254 L 148.50153 115.47254 L 148.50153 67.77054 L 122.44162 67.77054 z M 125.09004 74.304508 L 145.85415 74.304508 L 145.85415 81.257572 L 125.09004 81.257572 L 125.09004 74.304508 z M 125.09004 88.145007 L 145.85415 88.145007 L 145.85415 95.098071 L 125.09004 95.098071 L 125.09004 88.145007 z M 91.935474 88.877262 L 91.935474 101.36229 L 119.19427 101.36229 L 119.19427 88.877262 L 91.935474 88.877262 z M 151.74991 88.877262 L 151.74991 101.36229 L 177.3623 101.36229 L 177.3623 88.877262 L 151.74991 88.877262 z M 125.09004 101.98551 L 145.85415 101.98551 L 145.85415 108.93857 L 125.09004 108.93857 L 125.09004 101.98551 z M 91.935474 110.64648 L 91.935474 150.74429 L 97.142908 147.14037 L 172.04738 147.14037 L 177.3623 149.77277 L 177.3623 110.64648 L 151.74991 110.64648 L 151.74991 118.94985 L 141.31747 118.94985 L 141.31747 121.78171 L 129.62723 121.78171 L 129.62723 118.94985 L 119.19427 118.94985 L 119.19427 110.64648 L 91.935474 110.64648 z M 97.142908 157.06431 L 76.152974 172.11042 L 194.35816 172.11042 L 172.04738 157.06431 L 97.142908 157.06431 z M 66.677067 179.79316 L 66.46106 214.04688 L 202.62174 214.04688 L 202.62174 179.79316 L 66.677067 179.79316 z M 78.335787 192.12006 L 125.09521 192.12006 L 125.09521 204.8831 L 78.335787 204.8831 L 78.335787 192.12006 z M 158.44976 192.36397 A 5.4414141 6.1376947 0 0 1 163.89129 198.50158 A 5.4414141 6.1376947 0 0 1 158.44976 204.63919 A 5.4414141 6.1376947 0 0 1 153.00823 198.50158 A 5.4414141 6.1376947 0 0 1 158.44976 192.36397 z M 175.76808 192.36397 A 5.4414141 6.1376947 0 0 1 181.20961 198.50158 A 5.4414141 6.1376947 0 0 1 175.76808 204.63919 A 5.4414141 6.1376947 0 0 1 170.32655 198.50158 A 5.4414141 6.1376947 0 0 1 175.76808 192.36397 z " /></g></svg>
