<?xml version="1.0" encoding="UTF-8" standalone="no"?>
<!-- Created with Inkscape (http://www.inkscape.org/) -->

<svg
   width="1024"
   height="1024"
   viewBox="0 0 270.93333 270.93333"
   version="1.1"
   id="svg1"
   xml:space="preserve"
   inkscape:version="1.3.2 (091e20e, 2023-11-25, custom)"
   sodipodi:docname="Vorlage_Umriss.svg"
   xmlns:inkscape="http://www.inkscape.org/namespaces/inkscape"
   xmlns:sodipodi="http://sodipodi.sourceforge.net/DTD/sodipodi-0.dtd"
   xmlns="http://www.w3.org/2000/svg"
   xmlns:svg="http://www.w3.org/2000/svg"><sodipodi:namedview
     id="namedview1"
     pagecolor="#ffffff"
     bordercolor="#000000"
     borderopacity="0.25"
     inkscape:showpageshadow="2"
     inkscape:pageopacity="0.0"
     inkscape:pagecheckerboard="0"
     inkscape:deskcolor="#d1d1d1"
     inkscape:document-units="mm"
     inkscape:zoom="0.66724888"
     inkscape:cx="462.34623"
     inkscape:cy="526.78995"
     inkscape:window-width="1680"
     inkscape:window-height="987"
     inkscape:window-x="-8"
     inkscape:window-y="-8"
     inkscape:window-maximized="1"
     inkscape:current-layer="layer1" /><defs
     id="defs1" /><g
     inkscape:label="Ebene 1"
     inkscape:groupmode="layer"
     id="layer1"><path
       id="path2"
       style="fill:#0000ff;fill-opacity:0.42978;stroke:none;stroke-width:4.16499;stroke-dasharray:none;stroke-opacity:1"
       d="m 138.58689,57.100076 c -18.21791,0.516196 -38.00647,12.667255 -46.470954,28.807616 -4.044822,7.712803 3.713863,17.726168 1.302404,26.094728 -1.185984,4.11576 -7.133924,6.24834 -7.371502,10.52497 -0.377073,6.78766 8.688201,11.18754 9.777429,17.89784 1.901393,11.71371 4.685103,23.13316 9.872023,29.40747 4.11934,4.98292 2.25466,14.28012 -1.80559,19.31131 -10.195007,12.63296 -30.961603,9.77237 -46.438253,14.67168 -13.337367,4.2221 -40.004933,12.68892 -40.004933,12.68892 l -34.101469,61.85875 317.222535,-1.58611 -36.87717,-52.34207 c 0,0 -42.28832,-17.39491 -63.39995,-26.17089 -8.21822,-3.41626 -19.22244,-3.24042 -24.62917,-10.30987 -5.13111,-6.70907 -6.96809,-17.50173 -3.32144,-25.12025 2.13867,-4.46808 5.81051,-10.97591 6.78788,-21.31888 0.73482,-7.77616 11.66136,-13.828 9.61904,-21.36707 -0.84208,-3.10849 -6.45837,-2.70911 -7.87068,-5.60345 -4.92038,-10.08368 7.00459,-23.858156 1.48635,-33.627486 -8.1701,-14.464099 -27.17115,-24.287715 -43.77655,-23.817208 z"
       sodipodi:nodetypes="aaaassaaccccaassaaaa" /></g></svg>
